<svg width="306" height="300" viewBox="0 0 306 300" fill="none" xmlns="http://www.w3.org/2000/svg">
<g clip-path="url(#clip0_233_2)">
<path d="M0 0H377V300H0V0Z" fill="url(#paint0_linear_233_2)"/>
<path d="M153 133.838C132.194 133.838 115.332 150.7 115.332 171.506C115.332 192.312 132.194 209.174 153 209.174V234.854C118.011 234.854 89.6523 206.495 89.6523 171.506C89.6523 136.517 118.011 108.158 153 108.158C187.989 108.158 216.348 136.517 216.348 171.506C216.348 178.597 210.599 184.346 203.508 184.346H117.665V158.666H188.424C183.174 144.183 169.297 133.838 153 133.838Z" fill="white"/>
<path d="M122.376 85.445L176.393 85.4473L194.887 64.7539L122.376 64.7539L122.376 85.445Z" fill="white"/>
<path d="M103.732 178.118C104.433 183.538 106.024 188.836 108.469 193.789C112.832 202.63 119.719 209.979 128.259 214.906C136.799 219.833 146.608 222.117 156.446 221.47C161.655 221.127 166.543 220.337 171.375 218.471L171.789 218.931C166.928 220.848 161.775 222.014 156.505 222.361C146.491 223.021 136.505 220.696 127.812 215.681C119.119 210.665 112.108 203.184 107.667 194.185C105.143 189.071 103.515 183.597 102.817 177.998L103.732 178.118Z" stroke="white" stroke-width="25.55"/>
<rect x="111.206" y="158.664" width="6.67671" height="25.6861" fill="white"/>
</g>
<defs>
<linearGradient id="paint0_linear_233_2" x1="241.501" y1="199.709" x2="508.944" y2="531.638" gradientUnits="userSpaceOnUse">
<stop stop-color="#6D0000"/>
<stop offset="1" stop-color="#010000"/>
</linearGradient>
<clipPath id="clip0_233_2">
<rect width="306" height="300" rx="32.7273" fill="white"/>
</clipPath>
</defs>
</svg>
